<svg width="40" height="40" xmlns="http://www.w3.org/2000/svg">
 <defs>
  <clipPath id="clip0">
   <rect id="svg_1" x="40" y="40" transform="rotate(-180 40,40) " fill="white" height="40" width="40"/>
  </clipPath>
 </defs>
 <g>
  <title>Layer 1</title>
  <g id="svg_2" clip-path="url(#clip0)">
   <path id="svg_3" fill-opacity="0.5" fill="#333333" d="m0.24414,20.5892l12.49996,12.5c0.3256,0.3256 0.8529,0.3256 1.1784,0c0.3255,-0.3255 0.3255,-0.8529 0,-1.1783l-11.0775,-11.0775l36.3216,0c0.4607,0 0.8334,-0.3728 0.8334,-0.8334c0,-0.4606 -0.3727,-0.8334 -0.8334,-0.8334l-36.3216,0l11.0775,-11.07739c0.3255,-0.32554 0.3255,-0.85288 0,-1.17835c-0.1627,-0.16274 -0.376,-0.24414 -0.5892,-0.24414c-0.2132,0 -0.4264,0.0814 -0.5892,0.24414l-12.50004,12.50004c-0.32546,0.3254 -0.32546,0.8528 0.00008,1.1783z"/>
  </g>
 </g>
</svg>