<svg width="40" height="40" xmlns="http://www.w3.org/2000/svg">
 <defs>
  <clipPath id="clip0">
   <rect id="svg_1" fill="white" height="40" width="40"/>
  </clipPath>
 </defs>
 <g>
  <title>Layer 1</title>
  <g id="svg_2" clip-path="url(#clip0)">
   <path id="svg_3" fill-opacity="0.5" fill="#333333" d="m39.7559,19.4108l-12.5,-12.50001c-0.3256,-0.32555 -0.8529,-0.32555 -1.1784,0c-0.3255,0.32554 -0.3255,0.85289 0,1.17836l11.0775,11.07745l-36.32164,0c-0.46063,0 -0.83336,0.3728 -0.83336,0.8334c0,0.4606 0.37273,0.8334 0.83336,0.8334l36.32164,0l-11.0775,11.0774c-0.3255,0.3255 -0.3255,0.8529 0,1.1783c0.1627,0.1628 0.376,0.2442 0.5892,0.2442c0.2132,0 0.4264,-0.0814 0.5892,-0.2442l12.5,-12.5c0.3255,-0.3254 0.3255,-0.8528 0,-1.1783z"/>
  </g>
 </g>
</svg>