<svg width="40" height="40" viewBox="0 0 40 40" fill="none" xmlns="http://www.w3.org/2000/svg">
<g clip-path="url(#clip0)">
<path d="M39.7559 19.4108L27.2559 6.91079C26.9303 6.58524 26.403 6.58524 26.0775 6.91079C25.752 7.23633 25.752 7.76368 26.0775 8.08915L37.155 19.1666H0.833359C0.372734 19.1666 0 19.5394 0 20C0 20.4606 0.372734 20.8334 0.833359 20.8334H37.155L26.0775 31.9108C25.752 32.2363 25.752 32.7637 26.0775 33.0891C26.2402 33.2519 26.4535 33.3333 26.6667 33.3333C26.8799 33.3333 27.0931 33.2519 27.2559 33.0891L39.7559 20.5891C40.0814 20.2637 40.0814 19.7363 39.7559 19.4108Z" fill="white" fill-opacity="0.5"/>
</g>
<defs>
<clipPath id="clip0">
<rect width="40" height="40" fill="white"/>
</clipPath>
</defs>
</svg>
